<?xml version="1.0" encoding="UTF-8" standalone="no"?>
<svg
   height="2556.6768"
   viewBox="0 0 1859.75 2556.6768"
   width="1859.75"
   version="1.1"
   id="svg6"
   sodipodi:docname="sane-sigil.svg"
   inkscape:version="1.2.2 (b0a8486541, 2022-12-01)"
   xmlns:inkscape="http://www.inkscape.org/namespaces/inkscape"
   xmlns:sodipodi="http://sodipodi.sourceforge.net/DTD/sodipodi-0.dtd"
   xmlns="http://www.w3.org/2000/svg"
   xmlns:svg="http://www.w3.org/2000/svg">
  <defs
     id="defs10" />
  <sodipodi:namedview
     id="namedview8"
     pagecolor="#ffffff"
     bordercolor="#666666"
     borderopacity="1.0"
     inkscape:showpageshadow="2"
     inkscape:pageopacity="0.0"
     inkscape:pagecheckerboard="0"
     inkscape:deskcolor="#d1d1d1"
     showgrid="false"
     inkscape:zoom="0.28478379"
     inkscape:cx="496.86817"
     inkscape:cy="1739.9164"
     inkscape:window-width="2560"
     inkscape:window-height="1374"
     inkscape:window-x="1050"
     inkscape:window-y="43"
     inkscape:window-maximized="1"
     inkscape:current-layer="g4" />
  <g
     transform="translate(2.0200397,2159.4911)"
     id="g4">
    <path
       fill-rule="evenodd"
       fill="#fb0404"
       d="m 1620,-2150 c -12.4,3.66 -21.6,11.2 -34.3,28.1 -6.71,8.92 -34.7,39.5 -62.2,67.8 -35.7,36.9 -56,60.5 -71.1,82.8 -44.9,66.5 -121,133 -204,179 -58.7,32.6 -75.4,33.5 -107,5.93 -99,-86.8 -103,-89.2 -118,-74.3 -16.1,16.1 -5.85,50.2 24.9,83.3 51.7,55.5 38.9,68.6 -95.1,96.9 -93,19.6 -251,22.7 -421,8.12 -45.1,-3.86 -71.5,-8.22 -188,-31.1 -42.7,-8.35 -89.2,-23.3 -142,-45.5 -56.8,-24 -76.2,-26 -87.5,-8.76 -20.3,31.1 13.7,62.7 107,99.9 14.9,5.92 37.1,15.8 49.4,22 26.2,13.1 62.7,25.6 104,35.4 65.2,15.5 68.2,32 11.7,63.9 -133,75 -230,172 -273,272 -70.5,166 -52.6,378 42.5,506 56.8,76 121,123 201,148 27,8.49 36,17.3 40.2,39.2 15,79.1 51.3,125 118,151 39.7,14.9 47.5,33 28.4,65.8 -27.9,47.9 -33.2,68.1 -26.9,102 5.23,27.8 -5.07,32.9 -36.7,18.1 -37.2,-17.4 -53.8,-40.7 -61.5,-86.3 -15.9,-93.9 -51.6,-159 -139,-255 -48.7,-53.5 -69.6,-63.3 -97.9,-45.7 -26.5,16.4 -30.5,54.9 -13.5,130 6.66,29.6 56.5,132 85.6,176 54.2,82 45.2,135 -42.4,251 -20.1,26.6 -61.4,89.7 -81.9,125 -17.9,30.9 -59.8,85.3 -92.8,120 -64.8,68.8 -47.8,116 44.4,122 37.3,2.55 79.8,-13.2 145,-54 112,-69.7 231,-90.9 387,-68.9 24.3,3.43 64.6,6.92 89.7,7.77 116,3.92 173,30.4 323,150 25.8,20.6 53.9,42.2 62.4,48 47.8,32.8 97.1,-8.4 71.3,-59.6 -6.61,-13.1 -22.4,-28.8 -59.6,-59.2 -16.5,-13.5 -40.9,-34.4 -54.2,-46.3 -48,-58 -77,-77 -145,-111 -84,-41.2 -115,-48.4 -225,-53 -65.7,-2.73 -84.3,-5.18 -123,-16.1 -23.9,-6.76 -25.2,-6.84 -42,-2.49 -9.51,2.47 -38.6,7.64 -64.6,11.5 -26,3.85 -60.9,10.3 -77.6,14.4 -34,8.3 -50.2,9.53 -59.6,4.51 -20.7,-11.1 10.9,-72.3 43.8,-84.9 22.5,-8.61 96.6,3.8 144,24.1 39.4,16.9 61.7,12.1 76.2,-16.5 22,-41.5 -16,-78.9 -85,-83.4 -65.3,-4.28 -82.1,-14 -74.7,-43.1 5.49,-21.6 26.7,-20.9 72.6,2.19 35.7,18 38.2,18.8 66.5,21.3 16.2,1.45 46.7,6.63 67.8,11.5 66.6,15.4 78.2,17 160,21.5 145,8.06 300,-18.7 364,-62.9 11.3,-7.9 40.1,-27.9 63.8,-44.4 143,-99.2 223,-265 189,-393 -47,-181 -116,-271 -230,-298 -47.5,-11.3 -149,-4.43 -227,15.5 -39.5,10 -64.6,19.5 -103,38.6 -39.5,19.7 -119,51.6 -134,53.6 -30.4,4.1 -34.7,-3.66 -37,-66.3 -2.74,-74.8 -13,-114 -42,-158 -8.96,-13.7 -21.2,-34 -27.3,-45 -65.5,-119 -140,-174 -282,-206 -47.1,-10.6 -58.1,-17.6 -58.1,-37.1 0.03,-26.2 81.9,-104 161,-153 18.7,-11.5 42.9,-27 53.8,-34.3 66,-44.2 106,-61 178,-75.7 118,-23.7 135,-6 63.6,66 -29,29.4 -48,40.2 -84.5,48.1 -47.2,10.3 -57,27.8 -45.2,80.9 3.03,13.7 6.92,37.8 8.63,53.5 6.41,58.4 21.8,81.4 54.4,81.4 28.5,0 39.7,-18.7 42.3,-70.3 1.92,-38.5 7.06,-50 26.7,-60.1 24.3,-12.5 40.5,-26 55.6,-46.5 8.74,-11.9 23.4,-31.1 32.5,-42.7 24.1,-30.5 30.5,-44.9 33.6,-75 3.72,-36.1 9.29,-42.5 36.7,-42.5 53.8,0 168,42.5 213,79.1 14,11.4 53.7,56.4 79.8,90.5 19,24.7 63.1,110 74.7,145 16.6,49.6 12.2,156 -10.1,243 -12.4,48.2 5.93,81 45.3,81 27.9,-0.03 76.1,-47.9 133,-132 6.74,-10 21.4,-28.6 32.6,-41.4 11.2,-12.8 27.3,-32 35.7,-42.8 9.16,-11.7 27,-28.6 44.4,-42.1 16,-12.4 41.7,-34.2 57.2,-48.5 70.3,-64.8 131,-93 213,-99.4 50.7,-3.9 65.3,-14.4 65.3,-46.7 0,-41 -29.8,-51.8 -112,-41.1 -75.5,9.88 -128,35.9 -199,98.8 -16.4,14.5 -42.7,36.1 -58.4,48 -15.7,11.9 -40.6,33.4 -55.5,47.7 -55,52.9 -73.4,44.2 -54.4,-25.9 2.97,-11 8.24,-32.8 11.7,-48.5 19.5,-88 32.5,-103 68.4,-79.9 58.5,37.9 79.9,-27.8 27.4,-83.9 -32.2,-34.4 -33.8,-45.8 -15.4,-110 5.38,-18.9 13.1,-45.9 17.2,-60 4.05,-14.1 12.6,-45.3 18.9,-69.2 18.7,-70 29.3,-99.4 61.6,-170 16.8,-36.6 41.7,-94.2 55.4,-128 13.7,-33.8 30.4,-73.6 37,-88.4 24,-53.5 8.73,-92.2 -31.7,-80.3 m -208,383 c 11.8,11.9 -21.7,159 -40.2,176 -15.3,14.4 -13.2,15.8 -96.2,-62.6 -20.8,-19.6 -16.6,-32.5 16.7,-51.2 8.98,-5.03 28.4,-18.2 43.1,-29.2 43,-32.2 67,-42.6 76.6,-33 m -230,135 c 21.3,10.8 112,101 130,129 20.1,31.1 21.2,52 5.74,105 -20,68 -37.3,68.8 -73.4,3.43 -34.3,-62.1 -93.9,-134 -136,-163 -44.5,-31.2 -43.1,-43.2 7.84,-67 32.7,-15.3 46.8,-16.9 65.6,-7.42 m -189,400 c -42.4,9.37 -58.4,18.9 -103,61.4 -35.3,33.7 -41.3,36.6 -80.9,39.6 -59.9,4.55 -81.4,26.3 -62.2,62.8 12,22.9 36.9,34.4 74.4,34.5 8,0.03 22.2,1.91 31.6,4.19 48.8,11.8 67.5,2.02 99.7,-52.4 33,-55.6 49.9,-65 107,-59.1 47.3,4.86 51.1,-26 8.91,-70.8 -20.2,-21.5 -42.5,-27.5 -75.3,-20.2 m -672,93.7 c 17.2,7.46 39.6,16.7 49.8,20.6 54.6,20.9 125,90.3 155,153 20.8,43.3 22.1,50.6 23.5,136 2.01,117 2.01,117 -85,123 -88,6.46 -103,-4.2 -91.9,-67.4 17.4,-103 -31,-176 -136,-204 -35.1,-9.43 -42.4,-13.5 -48.8,-27.1 -10.3,-21.7 -8.29,-105 3.05,-127 14.7,-29 73.5,-32.6 130,-8 m 826,375 c 36.2,9.2 82.6,39.7 94,61.7 9.81,19 4.88,33.9 -23.2,70.1 -39.3,50.7 -52.4,51.8 -58,5.26 -8.81,-72.9 -49,-121 -75.1,-89.8 -11.3,13.4 -11.8,24.2 -3.46,63.4 4.13,19.3 8.75,41.2 10.3,48.8 2.66,13.2 14.5,33.9 23.9,41.8 26.8,22.3 -65.4,77.7 -136,81.8 -14.2,0.82 -40.8,3.49 -59.1,5.92 -24.1,3.21 -50.7,4.15 -96.8,3.43 -100,-1.57 -105,-6.74 -112,-118 -2.65,-42.2 3.47,-51 44.5,-64.5 10.2,-3.34 33.9,-13.6 52.7,-22.7 62.5,-30.5 77.4,-29.6 74.5,4.3 -6.88,81.5 18.5,159 52.1,159 29.5,0 38.5,-30.9 29.9,-102 -6.34,-52.5 -13.2,-66.8 -40,-83.5 -12.5,-7.76 -12.2,-14.4 0.987,-25.4 18.2,-15.1 45.1,-23.8 127,-41.1 15.2,-3.22 78.2,-1.58 94.1,2.44 m -538,160 c 23.5,11.2 44.6,90.3 27.7,104 -17.4,13.7 -122,-18.9 -143,-44.7 -17.3,-21 -17.3,-41.9 0,-50.9 19.5,-10.1 99.5,-15.7 116,-8.08 m 694,49.8 c 31.5,37.6 0.628,148 -60.9,219 -49.5,56.5 -64.7,56.7 -78.5,1.23 -4.09,-16.5 -11.3,-39 -16.1,-50 -18.4,-42.6 -13.2,-52.4 49.6,-93.1 17,-11 26.4,-19.9 41.3,-39.1 37.7,-48.6 49.5,-55.5 64.6,-37.5 m -243,166 c 16,4.45 25.7,18 37.6,52.6 5.83,16.9 15,39.6 20.4,50.4 20.1,40 6.59,53.9 -82.7,85.3 -105,36.8 -296,38.1 -421,2.85 -52.7,-14.8 -58.7,-22.1 -38.8,-47.3 11.6,-14.7 36.1,-53.8 56.1,-89.6 23.6,-42.2 35.7,-50 69.5,-45.1 8.62,1.26 28.7,4.11 44.7,6.31 56,7.75 62.3,17.2 54.6,81.6 -4.1,34 -0.907,48 14.5,63.4 30.5,30.6 57.9,-2.02 70,-83.4 7.65,-51.5 12.2,-54.8 95.2,-69.6 63.2,-11.2 65.9,-11.5 80.2,-7.48"
       id="path2"
       style="fill:#fb0404;fill-opacity:0.3378073" />
  </g>
</svg>
