<svg width="2105" height="2500" preserveAspectRatio="xMinYMin meet" version="1.1" viewBox="0 0 256 304" xmlns="http://www.w3.org/2000/svg">
	<path d="m183.66 237.87c-5e-3 7e-3 -0.0101 0.0373-0.0159 0.0964l-0.85402 6.802c-0.049 0.428-0.0491 1.36 0.3299 1.36h6.1531c0.379 0 0.37893-1.6541 0.42492-2.0842l0.854-5.25c0.048-0.473 0.048 0.0922-0.33295 0.0922l2.7e-4 -2.8e-4h-6.1503c-0.33162 0-0.37303-1.0664-0.40903-1.0162zm21.234 0.0491-6.62 2.1168-1.185 8.5061h-3.8309l-0.6612 4.827h4.4462c-0.425 2.414-0.85204 0.84798-0.89803 1.3229l-1.7041 11.448c-0.094 0.52201-0.0939 0.89981-0.0939 1.3709 0 4.495 3.311 6.1773 7.289 6.1773 3.6881 0 6.6689-1.0771 8.989-3.0201l-2.9348-3.61c-1.4701 0.897-2.4621 1.5439-4.6401 1.5439-1.559 0-2.3171-0.66294-2.3171-2.08l0.0479-0.097 1.9872-13.056h7.1898l2.175-4.827h-8.704zm-187.44 0.49763c-10.929 0-15.423 5.9369-17.079 17.576-0.237 1.562-0.37922 3.02-0.37922 4.576 0 6.86 2.699 13.101 12.349 13.101 7.332 0 11.687-3.5749 14.24-7.975l-4.306-2.9c-2.79 4.401-5.82 5.5718-9.179 5.5718l0.0014-2.8e-4c-5.204 0-6.717-3.0299-6.717-7.5699 0-1.513 0.19008-3.2201 0.42408-5.0182 1.14-7.851 3.9229-12.343 10.64-12.343 4.543 0 6.7582 2.032 6.7582 5.722v1.7991h4.5069c0.05 0 0.04988-1.6562 0.04988-2.0332 0-5.392-3.2651-10.506-11.308-10.506zm57.439 0.46895-1.4651 8.685c-0.094 0.755-0.0461 0.50402 0.2399 1.214-1.372-1.04-3.8339-1.7278-5.4899-1.7278-7.854 0-12.252 3.555-13.669 13.49a19.414 19.414 0 0 0-0.23712 3.1708c0 7.241 4.257 9.94 9.9801 9.94 2.416 0 4.7801 0.0502 6.6231-1.5088l0.47089 2.9429h4.5431l5.2979-36.206zm35.187 2.4141-0.56506 4.8268h3.4999l-3.7819 24.137h-3.5052l-0.56396 4.8282h13.34l0.57008-4.8282h-3.503l3.783-24.137h3.5027l0.56701-4.8268zm56.694 5.3969c-2.65 0-5.0131 1.2998-7.948 3.6158l-0.42492-1.7718h-5.206l-3.642 26.55h6.2921l2.7451-20.134c1.846-1.135 4.115-2.783 6.055-2.783 2.364 0 3.2179 1.1411 3.2179 3.316 0 0.52101-0.0498 2.0638-0.14488 2.6308l-2.3152 16.971h6.2932l2.3149-17.108c0.096-0.8 0.19002-2.1191 0.19002-2.8741 4e-3 -4.5-2.1289-8.4119-7.427-8.4119zm86.428 0c-2.271 0-4.3998 1.3021-6.5298 3.3322l-0.37811-1.4871h-5.2021l-3.644 26.55h6.34l2.79-20.56c1.657-0.991 3.549-1.8379 5.347-1.8379 1.137 0 2.2232-0.18112 3.2631-0.0401l0.80887-5.485c-0.951-0.18899-1.897-0.47117-2.795-0.47117zm-158.2 2.7e-4 -5.57e-4 2.8e-4c-8.66 0-12.725 4.1129-14.099 13.432-0.144 1.137-0.23879 2.2261-0.23879 3.2662 0 6.387 3.266 10.22 10.454 10.22 5.583 0 9.7499-2.3201 11.972-6.578l-4.7789-1.9398c-1.37 2.08-3.2151 3.4999-6.4802 3.4999-3.5 0-4.9201-0.94204-4.9201-4.065 0-0.616 0.04822-1.511 0.14322-1.511h17.076c0.24001-2.414 0.51993-4.12 0.51993-5.535 0-4.728-1.7959-10.79-9.6479-10.79zm-52.333 2.8e-4c-8.754 0-12.536 4.4919-13.813 13.432a23.325 23.325 0 0 0-0.2399 3.1243c0 5.77 2.6968 10.362 10.17 10.362 8.754 0 12.587-4.6849 13.864-13.486 0.142-1.134 0.23712-2.1752 0.23712-3.2152 2e-3 -5.865-2.788-10.217-10.218-10.217zm183.47 2.8e-4 -2.7e-4 2.8e-4c-8.657 0-12.725 4.1131-14.098 13.433-0.14199 1.137-0.2371 2.2258-0.2371 3.2659 0 6.387 3.2641 10.22 10.454 10.22 5.583 0 9.75-2.32 11.97-6.578l-4.7772-1.9398c-1.37 2.08-3.217 3.4999-6.483 3.4999-3.498 0-4.9198-0.94203-4.9198-4.065 0-0.616 0.051-1.511 0.146-1.511h17.077c0.236-2.414 0.51993-4.12 0.51993-5.535 0-4.728-1.7968-10.79-9.6518-10.79zm-89.082 0.46031c-6.768 0-12.538 3.268-12.538 10.697 0 2.084 0.75608 3.7658 1.6531 4.9028-1.416 0.75499-2.647 2.0201-2.647 3.7262 0 0.75599 0.28206 1.53 0.85207 2.238-2.841 1.706-4.586 4.5331-4.586 7.8421 0 6.39 6.6691 7.753 11.779 7.753 6.433 0 14.099-1.4703 14.099-9.6552 0-2.79-1.75-4.9699-6.812-5.9159l-9.1302-1.7058c-1.04-0.19101-1.277-0.52201-1.277-0.995 0-0.71001 0.42999-1.0861 1.136-1.0861l0.61607 0.0939c1.23 0.28301 2.6501 0.42714 4.1151 0.42714 6.578 0 12.442-2.8402 12.442-10.22 0-1.042-0.18792-1.7468-0.66092-2.8838 0.803 0.38001 1.8461 0.995 2.2681 0.995h1.5999l5.6e-4 -3e-3 1.705-4.827h-4.5888l-3.309 0.68293c-1.846-1.18-4.354-2.0658-6.717-2.0658zm41.431 1.384-0.65897 4.8268h4.586c-0.379 0-0.61492 0.42314-0.66092 0.80414l-1.893 12.82c-0.094 0.617-0.14015 1.901-0.14015 2.418 0 3.311 1.7961 5.6819 5.4841 5.6819h3.2179l0.71023-4.8279h-2.0332c-0.71201 0-0.94597-1.257-0.94597-1.8239l2.8e-4 -8.5e-4 0.0479-0.65004 2.742-19.248zm-111.02 2.978c2.0319 0 3.5919 0.33305 5.0619 1.139l-2.1341 14.569c-2.127 1.274-4.2071 1.562-5.4841 1.562-3.454 0-4.3999-1.7989-4.3999-4.683 0-1.089 0.14196-2.363 0.33297-3.739 1.086-7.521 3.5001-8.848 6.6231-8.848zm68.87 0.14377c2.839 0 4.2121 1.183 4.2121 3.498 0 3.502-1.989 5.3968-5.537 5.3968-2.744 0-4.2581-0.9918-4.2581-3.3598 0-3.5 2.035-5.535 5.583-5.535zm-94.427 0.0485c3.123 0 4.6822 1.2771 4.6822 5.1561 0 0.94599-0.09622 2.0349-0.28421 3.2639-0.947 6.483-2.9789 8.4699-6.814 8.4699-3.073 0-4.586-1.2779-4.586-5.1098 0-0.947 0.09621-2.0811 0.28421-3.36 0.947-6.433 2.8388-8.42 6.7178-8.42zm52.33 0.33409c2.79 0 4.1642 1.6309 4.1642 4.4219-0.0035 0.47301-0.04621 1.7281-0.14322 1.7281h-10.408c1.043-2.414 2.7898-6.15 6.3868-6.15zm131.14 5.5e-4c2.79 0 4.1639 1.6312 4.1639 4.4222-4e-3 0.47301-0.049 1.7278-0.14294 1.7278h-10.408c1.04-2.414 2.7881-6.15 6.3871-6.15zm-97.317 19.248 8.894 1.6562c1.796 0.333 2.4102 0.99403 2.4102 2.177 0 3.833-4.116 4.306-7.0951 4.306-4.542 0-6.2439-1.0861-6.2439-3.5021 0-2.13 0.61286-3.121 2.0348-4.637z" fill="#ee4323" stroke-width="1.173"/>
	<path d="m123.48 14.339c7.4626 12.072-2.3689 28.043-10.235 36.972-7.6272 8.6553-16.903 15.882-25.323 23.746-9.0448 8.4464-17.74 17.344-25.175 27.257-14.869 19.842-23.972 44.798-17.282 69.552 6.6841 24.733 28.106 40.479 52.299 46.05-12.204-5.2799-23.621-18.687-23.648-32.406-0.03325-14.961 9.448-27.663 21.24-36.011-1.4177 5.3562-2.1908 10.255 1.3214 15.046 3.265 4.4542 8.9834 6.6189 14.383 5.4442 12.617-2.762 13.196-16.632 5.7159-24.713-7.3953-8.0022-14.549-17.041-11.734-28.646 1.4092-5.8173 4.9809-11.266 9.5059-15.161-3.4781 9.1403 6.4057 18.154 12.918 22.644 11.296 7.79 23.69 13.677 34.077 22.809 10.925 9.5972 18.993 22.574 17.364 37.624-1.7655 16.313-14.728 27.659-29.268 33.387 30.725-6.7815 62.472-30.628 63.123-64.703 0.53876-28.034-18.692-49.609-42.515-61.96l-1.2447-0.67957c0.65385 1.5865 0.86796 2.936 0.84323 4.1439 0.21312-0.89085 0.3579-1.8065 0.39882-2.7511a13.408 13.408 0 0 1-0.43635 3.3247l0.0375-0.57363a13.966 13.966 0 0 1-1.7639 4.2036l0.3494-0.37601c-4.7526 7.8829-17.619 9.5948-23.975 1.4323-10.218-13.13 0.21397-27.286 1.6734-41.19 1.8269-17.426-9.1012-34.342-22.65-44.465zm-25.716 203.58c0.0033 1e-3 0.0066 3e-3 0.01 5e-3l0.0017-2e-3c-0.0039-8.9e-4 -0.0077-2e-3 -0.01164-3e-3z" fill="#ee4323"/>
</svg>
