<svg version="1.1" viewBox="0 0 681.17 1009.7" xmlns="http://www.w3.org/2000/svg">
	<title>Druplicon</title>
	<g stroke-width=".89549">
		<path d="m492.45 170.38c-35.596-22.163-69.176-30.894-102.76-53.058-20.82-14.104-49.699-47.685-73.878-76.564-4.7013 46.341-18.805 65.147-34.924 78.579-34.252 26.865-55.744 34.924-85.295 51.043-24.85 12.761-159.84 93.354-159.84 266.63s145.74 300.88 307.6 300.88 302.23-117.53 302.23-295.51-131.64-258.57-153.13-272z" fill="#3683b1"/>
		<path d="m437.89 613.38c10.746 0 22.163 0.67161 30.223 6.0445 8.0594 5.3729 12.761 17.462 15.447 24.178 2.6865 6.7162 0 10.746-5.3729 13.432-4.7013 2.6865-5.3729 1.3432-10.074-7.3878-4.7013-8.731-8.731-17.462-32.237-17.462-23.507 0-30.894 8.0594-42.312 17.462-11.417 9.4026-15.447 12.761-19.477 7.3878-4.0297-5.3729-2.6864-10.746 4.7013-17.462 7.3878-6.7162 19.477-17.462 30.894-22.163 11.417-4.7013 17.462-4.0297 28.208-4.0297z" fill="#fff"/>
		<path d="m326.4 689.94c13.432 10.746 33.581 19.477 76.564 19.477s73.206-12.089 86.638-22.163c6.0445-4.7013 8.731-0.67162 9.4026 2.0148s2.0148 6.7162-2.6865 11.417c-3.3581 3.3581-34.252 24.85-70.52 28.208s-85.295 5.3729-114.85-21.492c-4.7013-4.7013-3.3581-11.417 0-14.104s6.0445-4.7013 10.074-4.7013c4.0297 0 3.3581 0 5.3729 1.3432z" fill="#fff"/>
		<path d="m161.86 612.9c51.043-0.67161 60.445-9.4026 105.44-29.551 243.12-108.8 288.12-208.2 296.85-231.04 8.731-22.835 21.492-59.774 8.0594-100.74-2.5933-7.9089-4.4828-14.26-5.8475-19.369-32.308-36.127-64.384-55.84-74.075-61.896-34.924-22.163-69.176-30.894-102.76-53.058-20.82-13.432-49.699-47.685-73.878-76.564-4.7013 46.341-18.134 65.818-34.924 78.579-34.252 26.865-55.744 34.924-85.295 51.043-24.85 13.432-159.84 93.354-159.84 266.63 0 55.323 14.859 105.99 40.353 149.34l6.6597-0.2382c14.104 12.761 36.267 27.536 79.251 26.865z" fill="#2aa9e0"/>
		<path d="m492.29 170.31c-34.924-22.163-69.176-30.894-102.76-53.058-20.82-13.432-49.699-47.685-73.878-76.564-4.7013 46.341-18.134 65.818-34.924 78.579-34.252 26.865-55.744 34.924-85.295 51.043-24.85 13.432-159.84 93.354-159.84 266.63 0 55.323 14.859 105.99 40.353 149.34 54.356 92.414 157.07 151.54 267.25 151.54 161.86 0 302.23-117.53 302.23-295.51 0-97.742-39.699-166.1-79.053-210.11-32.308-36.127-64.385-55.84-74.075-61.896zm81.636 78.621c44.096 55.13 66.455 120.19 66.455 193.38 0 42.471-8.0889 82.591-24.043 119.24-15.134 34.773-36.926 65.579-64.773 91.563-55.046 51.369-129.05 79.659-208.37 79.659-39.246 0-77.757-7.4961-114.46-22.281-36.055-14.522-68.547-35.316-96.569-61.806-59.021-55.784-91.528-130.99-91.528-211.76 0-71.94 23.351-135.86 69.403-190 35.183-41.354 73.121-64.273 87.8-72.207 7.1263-3.8873 13.811-7.3179 20.276-10.636 20.265-10.401 39.406-20.225 65.732-40.874 14.039-10.669 28.993-27.568 35.362-70.477 22.185 26.386 47.928 56.039 67.6 68.73 17.462 11.525 35.373 19.6 52.694 27.411 16.386 7.3878 33.329 15.027 50.095 25.667 0.0278 0.0188 0.62863 0.39222 0.62863 0.39222 49.012 30.601 75.124 63.246 83.706 73.975z" fill="#2f5e72"/>
		<path d="m319.02 80.119c9.4026 27.536 8.0594 41.64 8.0594 47.685s-3.3581 22.163-14.104 30.223c-4.7013 3.3581-6.0445 6.0445-6.0445 6.7161 0 2.6865 6.0445 4.7013 6.0445 10.746 0 7.3878-3.3581 22.163-38.954 57.759s-86.638 67.161-126.26 86.638c-39.625 19.477-58.43 18.134-63.803 8.731-5.3729-9.4026 2.0148-30.223 26.865-57.759s103.43-67.161 103.43-67.161l98.056-68.505 5.3729-26.193" fill="#93c5e4"/>
		<path d="m319.02 79.447c-6.0445 44.327-19.477 57.759-37.61 71.863-30.223 22.835-59.774 36.939-66.49 40.297-17.462 8.731-80.594 43.655-113.5 94.026-10.074 15.447 0 21.492 2.0148 22.835 2.0148 1.3432 24.85 4.0297 73.878-25.521 49.028-29.551 70.52-47.013 98.056-75.892 14.776-15.447 16.79-24.178 16.79-28.208 0-4.7013-3.3581-6.7162-8.731-8.0594-2.6865-0.67161-3.3581-2.0148 0-4.0297 3.3581-2.0148 17.462-8.731 20.82-11.417 3.3581-2.6865 19.477-13.432 20.148-30.894 0.67161-17.462-0.67162-29.551-5.3729-44.998z" fill="#fff"/>
		<path d="m167.9 567.71c0.67161-52.386 49.699-101.41 111.49-102.09 78.579-0.67161 132.98 77.907 172.6 77.236 33.581-0.67161 98.056-66.49 129.62-66.49 33.581 0 42.983 34.924 42.983 55.744s-6.7161 58.43-22.835 81.937c-16.119 23.506-26.193 32.237-44.998 30.894-24.178-2.0148-72.534-77.236-103.43-78.579-38.954-1.3432-123.58 81.265-190.07 81.265-40.297 0-52.386-6.0445-65.818-14.776-20.148-14.104-30.223-35.596-29.551-65.147z" fill="#fff"/>
		<path d="m572.22 277.57c13.432 40.968 0.67161 77.907-8.0594 100.74-8.731 22.835-53.729 122.23-296.85 231.04-44.998 20.148-54.401 28.879-105.44 29.551-42.983 0.67162-65.147-14.104-79.251-26.865l-6.6597 0.2382c54.356 92.414 157.07 151.54 267.25 151.54 161.86 0 302.23-117.53 302.23-295.51 0-97.742-39.699-166.1-79.053-210.11 1.3647 5.1096 3.2542 11.46 5.8475 19.369z" fill="none"/>
	</g>
	<g transform="matrix(.92876 0 0 .92876 50.771 28.997)">
		<g fill="#2aa9e0" stroke-width="1.5465">
			<path d="m331.21 849.66h-33.852l0.0557 63.338c0 18.51-7.9352 33.485-26.446 33.485-18.518 0-26.526-14.975-26.526-33.485v-63.276h-33.764l-9e-3 63.276c0 36.577 23.512 66.222 60.095 66.222 36.572 0 60.435-29.645 60.435-66.222z"/>
			<rect x="636.45" y="811.07" width="33.685" height="164.88"/>
			<path d="m183.14 848.28c-29.036-6.7011-47.353 22.145-48.114 23.691-0.37426 0.75935-0.38818 1.2017-1.6749 1.1676-1.0625-0.0217-1.1846-1.1676-1.1846-1.1676l-3.6034-22.066h-30.173v125.93h33.824v-68.165c0-5.5706 15.001-32.279 44.064-25.403 14.698 3.4766 20.932 9.7138 20.932 9.7138v-38.363c-5.4391-2.8363-9.1709-4.2112-14.07-5.3417z"/>
			<path d="m377.11 1017.3v-45.313c3e-3 0 8e-3 5e-3 0.0108 8e-3l5e-3 -16.969s0.0541-1.3579 1.2774-1.3749c1.0918-0.0124 1.3346 0.7114 1.6007 1.3749 2.5641 6.381 16.67 30.694 47.97 23.068 28.02-7.8935 48.572-33.623 48.572-64.181 0-36.815-29.853-66.672-66.677-66.672s-66.676 29.857-66.676 66.672v103.39h33.917zm32.786-137.13c18.643 0 33.753 15.113 33.753 33.742 0 18.645-15.11 33.759-33.753 33.759-18.64 0-33.745-15.113-33.745-33.759 2e-3 -18.629 15.106-33.742 33.745-33.742z"/>
			<path d="m588.86 975.9h33.917v-61.963c0-36.815-29.848-66.672-66.674-66.672s-66.679 29.857-66.679 66.672c0 30.556 20.553 56.286 48.573 64.181 31.302 7.6259 45.401-16.687 47.97-23.068 0.266-0.66346 0.50572-1.3857 1.6007-1.3749 1.2233 0.017 1.2743 1.3749 1.2743 1.3749m0.9774-41.113c0 18.645-15.111 33.759-33.747 33.759-18.64 0-33.753-15.113-33.753-33.759 0-18.629 15.113-33.742 33.753-33.742 18.637 0 33.747 15.113 33.747 33.742z"/>
		</g>
		<g transform="matrix(1.5465,0,0,1.5465,-46.049,811)">
			<path d="m24.879 106.46h-24.879v-106.46h26.695c32.325 0 56.841 5.931 56.841 53.229 0 46.84-25.969 53.228-58.657 53.228zm5.94-88.004h-8.795v69.533l9.032 0.231c18.522 0 30.452-1.686 30.452-34.989 0-31.937-10.532-34.775-30.689-34.775z" fill="#2aa9e0"/>
		</g>
	</g>
</svg>
