<svg enable-background="new 0 0 170.08 70.87" version="1.1" viewBox="0 0 600 600" xmlns="http://www.w3.org/2000/svg">
	<circle cx="300" cy="300" r="255.02" fill="#003380" stop-color="#000000" stroke-linecap="round" stroke-linejoin="round" stroke-width="439.12"/>
	<g transform="matrix(2.7852 0 0 2.7852 65.977 214.4)">
		<g fill="#fff">
			<path d="m56.912 19.227c0.26-0.968 0.889-1.301 1.818-1.052 0.971 0.26 1.391 0.872 1.13 1.842l-11.665 43.531c-0.258 0.97-0.887 1.3-1.858 1.04-0.969-0.26-1.348-0.86-1.089-1.83z"/>
			<path d="m81.674 19.227c0.261-0.97 0.89-1.3 1.82-1.05 0.969 0.26 1.389 0.871 1.128 1.84l-11.664 43.531c-0.26 0.97-0.888 1.3-1.858 1.038-0.969-0.259-1.35-0.858-1.09-1.828z"/>
			<path d="m8 12.973c0-1.004 0.482-1.485 1.445-1.485 1.003 0 1.485 0.481 1.485 1.485v25.373h12.887c1.004 0 1.485 0.482 1.485 1.445 0 1.004-0.481 1.485-1.485 1.485h-13.85c-1.324 0-1.967-0.762-1.967-2.288z"/>
			<path d="m36.117 18.433c5.339 0 8.149 3.211 8.149 7.266v14.414c0 0.763-0.522 1.485-1.485 1.485s-1.445-0.683-1.485-1.445-0.04-1.004-0.04-1.365c-1.727 1.847-4.296 2.811-6.865 2.811-3.934 0-7.708-2.208-7.708-6.706 0-4.697 4.296-7.106 8.511-7.106 2.289 0 4.737 0.683 6.062 2.007v-3.814c0-2.77-2.249-4.617-6.022-4.617-2.61 0-4.296 0.963-5.541 0.963-0.682 0-1.365-0.321-1.365-1.245 0-0.522 0.441-1.164 1.124-1.445 1.767-0.722 3.895-1.203 6.665-1.203zm-1.204 20.354c3.051 0 6.303-1.605 6.303-4.376 0-2.449-3.051-3.854-6.022-3.854-2.81 0-5.5 1.285-5.5 4.095-1e-3 2.891 2.489 4.135 5.219 4.135z"/>
			<path d="m92.853 9.761c1.124 0 2.007 0.883 2.007 2.007s-0.883 2.007-2.007 2.007c-0.07244 0-0.14388-0.0037-0.21415-0.01083-1.02-0.10399-1.7928-0.94461-1.7928-1.9962 0-1.124 0.883-2.007 2.007-2.007zm-1.406 10.197c0-1.004 0.521-1.485 1.485-1.485 1.004 0 1.565 0.481 1.565 1.485v19.833c0 1.004-0.521 1.485-1.525 1.485s-1.525-0.481-1.525-1.485z"/>
			<path d="m102.07 20.239c0-1.043 0.481-1.565 1.445-1.565 1.003 0 1.484 0.522 1.484 1.565v1.526c1.325-2.409 3.654-3.493 6.022-3.493 3.854 0 7.828 2.89 7.828 7.667v13.892c0 0.964-0.481 1.445-1.485 1.445-0.963 0-1.445-0.481-1.445-1.445v-12.607c0-4.055-2.689-6.021-5.379-6.021-2.771 0-5.541 2.047-5.541 6.021v12.607c0 0.964-0.481 1.445-1.484 1.445-0.964 0-1.445-0.481-1.445-1.445z"/>
			<path d="m133.18 18.433c5.34 0 8.15 3.211 8.15 7.266v14.414c0 0.763-0.522 1.485-1.486 1.485-0.963 0-1.445-0.683-1.484-1.445-0.041-0.763-0.041-1.004-0.041-1.365-1.727 1.847-4.295 2.811-6.865 2.811-3.934 0-7.707-2.208-7.707-6.706 0-4.697 4.295-7.106 8.51-7.106 2.289 0 4.738 0.683 6.062 2.007v-3.814c0-2.77-2.248-4.617-6.021-4.617-2.609 0-4.296 0.963-5.54 0.963-0.683 0-1.365-0.321-1.365-1.245 0-0.522 0.441-1.164 1.124-1.445 1.765-0.722 3.893-1.203 6.663-1.203zm-1.205 20.354c3.052 0 6.303-1.605 6.303-4.376 0-2.449-3.051-3.854-6.022-3.854-2.81 0-5.499 1.285-5.499 4.095 0 2.891 2.489 4.135 5.218 4.135z"/>
			<path d="m154.69 38.747c2.168 0 4.938-0.884 4.938-3.494 0-1.967-2.488-3.091-4.617-3.854-3.652-1.325-8.068-3.091-8.068-6.503 0-4.537 3.813-6.544 8.068-6.544 2.088 0 4.297 0.401 6.223 1.445 0.522 0.281 0.764 0.843 0.764 1.405 0 0.923-0.603 1.405-1.365 1.405-0.281 0-0.602-0.08-0.883-0.241-0.964-0.562-2.932-1.044-4.818-1.044-2.368 0-4.816 0.843-4.816 3.212 0 1.847 3.131 2.81 6.142 4.055 3.292 1.365 6.664 2.77 6.664 6.383 0 4.939-4.335 6.745-8.31 6.745-2.891 0-5.219-0.964-7.428-2.368-0.361-0.241-0.521-0.723-0.521-1.205 0-1.123 0.562-1.646 1.324-1.646 0.361 0 0.764 0.161 1.164 0.441 1.405 0.924 3.291 1.808 5.539 1.808z"/>
		</g>
		<path d="m67.599 24.514c0.261-0.969 0.89-1.3 1.819-1.05 0.971 0.26 1.389 0.871 1.129 1.84l-5.135 19.163c-0.26 0.97-0.889 1.3-1.858 1.039-0.97-0.26-1.349-0.859-1.089-1.83z" fill="#c35fa2"/>
	</g>
</svg>
