<svg version="1.0" viewBox="0 0 338.44 421.89" xmlns="http://www.w3.org/2000/svg">
	<style type="text/css">.st0{fill-rule:evenodd;clip-rule:evenodd;fill:#FF2D20;}</style>
	<path class="st0" d="m32.75 323.53v60.401h21.818v10.396h-33.458v-70.797zm62.963 30.017v-6.3695h11.055v47.149h-11.055v-6.3695c-1.4643 2.3428-3.5874 4.2464-6.2963 5.5642-2.7089 1.3179-5.491 2.05-8.2731 2.05-3.5874 0-6.8821-0.65892-9.8108-1.9768-2.8554-1.2446-5.491-3.075-7.6141-5.4178-2.1232-2.2696-3.8071-4.9785-4.9785-7.907-1.1714-3.0018-1.8303-6.2231-1.7571-9.5176 0-3.2946 0.5857-6.4428 1.7571-9.4449 1.1714-2.9285 2.8554-5.6374 4.9785-7.907 2.1232-2.3428 4.7589-4.1731 7.6141-5.4178 3.0017-1.3178 6.2231-1.9768 9.8108-1.9768 2.7821 0 5.491 0.65892 8.2731 2.0499 2.7821 1.391 4.832 3.1481 6.2963 5.491zm-1.025 22.989c0.65892-1.8303 1.025-3.8071 1.025-5.7839 0-2.0499-0.36606-3.9535-1.025-5.7839-0.65892-1.7571-1.6106-3.3678-2.8554-4.7589-1.2446-1.391-2.7089-2.4892-4.3927-3.2214-1.6839-0.80534-3.6607-1.2446-5.7106-1.2446-2.1232 0-3.9535 0.43928-5.6374 1.2446-1.6839 0.80534-3.1481 1.9035-4.3196 3.2214-1.2446 1.391-2.1964 3.0018-2.7821 4.7589-0.65892 1.8303-0.95176 3.8071-0.95176 5.7839 0 2.0499 0.29285 3.9535 0.95176 5.7839s1.5375 3.441 2.7821 4.7589c1.2446 1.391 2.7089 2.4892 4.3196 3.2214 1.6839 0.80535 3.5874 1.2446 5.6374 1.2446 2.1232 0 4.0267-0.43927 5.7106-1.2446 1.6839-0.80535 3.1481-1.9035 4.3927-3.2214 1.2446-1.391 2.1964-3.0018 2.8554-4.7589zm20.719 17.79v-47.149h29.944v10.836h-18.889v36.314zm69.918-40.78v-6.3695h11.055v47.149h-11.055v-6.3695c-1.4642 2.3428-3.5874 4.2464-6.2963 5.5642-2.7089 1.3179-5.491 2.0499-8.2731 2.0499-3.5874 0-6.8088-0.65892-9.8108-1.9768-2.8553-1.2446-5.491-3.075-7.6141-5.4178-2.1232-2.2696-3.8071-4.9785-4.9785-7.907-1.1714-3.0018-1.8303-6.2231-1.7571-9.5176 0-3.2946 0.58571-6.4428 1.7571-9.4449 1.1714-2.9285 2.7821-5.6374 4.9785-7.907 2.1232-2.3428 4.7589-4.1731 7.6141-5.4178 3.0018-1.3178 6.2231-1.9768 9.8108-1.9768 2.7821 0 5.491 0.65892 8.2731 2.0499 2.7089 1.3179 4.832 3.1481 6.2963 5.491zm-1.025 22.989c0.65893-1.8303 1.025-3.8071 1.025-5.7839 0-2.0499-0.36605-3.9535-1.025-5.7839-0.65891-1.7571-1.6106-3.3678-2.8553-4.7589-1.2446-1.391-2.7089-2.4892-4.3927-3.2214-1.6839-0.80534-3.6607-1.2446-5.7106-1.2446-2.1232 0-3.9535 0.43928-5.6374 1.2446-1.6839 0.80534-3.1481 1.9035-4.3196 3.2214-1.2446 1.391-2.1964 3.0018-2.7821 4.7589-0.65893 1.8303-0.95176 3.8071-0.95176 5.7839 0 2.0499 0.29285 3.9535 0.95176 5.7839 0.6589 1.8303 1.5375 3.441 2.7821 4.7589 1.2446 1.391 2.7089 2.4892 4.3196 3.2214 1.6839 0.80535 3.5874 1.2446 5.6374 1.2446 2.1232 0 4.0267-0.43928 5.7106-1.2446s3.1481-1.9035 4.3927-3.2214c1.3178-1.391 2.2696-3.0018 2.8553-4.7589zm56.301-29.359h11.202l-18.084 47.149h-13.837l-18.23-47.149h11.202l13.837 36.094zm35.215-1.1714c15.009 0 25.258 13.325 23.355 28.846h-36.607c0 4.1 4.1 11.934 13.837 11.934 8.4195 0 13.984-7.3945 13.984-7.3945l7.4677 5.7839c-6.6624 7.1017-12.08 10.396-20.646 10.396-15.229 0-25.625-9.6637-25.625-24.82 0-13.691 10.69-24.746 24.233-24.746zm-13.251 20.646h26.43c-0.0733-0.87858-1.5375-11.934-13.325-11.934-11.714 0-13.032 11.055-13.105 11.934zm43.709 27.675v-70.797h11.055v70.797z" stroke-width=".73214"/>
	<path class="st0" d="m307.82 90.827c0.15188 0.45565 0.15188 0.75943 0.15188 1.2151v61.362c0 1.6707-0.91132 3.0377-2.2783 3.949l-51.49 29.618v58.78c0 1.6708-0.91132 3.0377-2.2783 3.949l-107.39 61.818c-0.30377 0.15189-0.45566 0.30377-0.75943 0.30377-0.15188 0-0.15188 0.15189-0.30377 0.15189-0.75943 0.15189-1.5188 0.15189-2.2783 0-0.15188 0-0.30377-0.15189-0.30377-0.15189-0.30377-0.15188-0.45565-0.15188-0.75942-0.30377l-107.39-61.818c-1.367-0.75943-2.2783-2.2783-2.2783-3.949v-184.08c0-0.45566 0-0.75943 0.15188-1.2151 0-0.15189 0.15189-0.30377 0.15189-0.30377 0.15189-0.30378 0.15189-0.45567 0.30377-0.75944 0.15189-0.15189 0.15189-0.30377 0.30378-0.45566l0.45566-0.45566c0.15189-0.15189 0.30377-0.15189 0.45566-0.30377 0.15189-0.15189 0.30377-0.30378 0.45566-0.45566l53.616-30.833c1.367-0.75943 3.0377-0.75943 4.4046 0l53.616 30.833c0.15188 0.15188 0.30377 0.30377 0.45564 0.45566 0.1519 0.15188 0.30379 0.15188 0.45566 0.30377 0.1519 0.15189 0.30379 0.30377 0.45566 0.45566 0.1519 0.15189 0.1519 0.30377 0.30379 0.45566 0.15187 0.15189 0.15187 0.45566 0.30376 0.75944 0 0.15188 0.15188 0.30377 0.15188 0.45566 0.15189 0.45566 0.15189 0.75943 0.15189 1.2151v114.83l44.806-25.821v-58.78c0-0.45566 0-0.75944 0.15188-1.2151 0-0.15188 0.1519-0.30377 0.1519-0.45566 0.15188-0.30377 0.15188-0.45566 0.30376-0.75943 0.1519-0.15188 0.1519-0.30377 0.30377-0.45566 0.15189-0.15188 0.30378-0.30378 0.45566-0.45565 0.15189-0.15189 0.30377-0.15189 0.45566-0.30378 0.15188-0.15188 0.30377-0.30378 0.45565-0.45566l53.616-30.833c1.367-0.75944 3.0378-0.75944 4.4046 0l53.616 30.833c0.1519 0.15188 0.30378 0.30378 0.45566 0.45566 0.1519 0.15188 0.30377 0.15188 0.45567 0.30378 0.15189 0.15188 0.30376 0.30377 0.45566 0.45565 0.15187 0.15189 0.15187 0.30378 0.30377 0.45566 0.15188 0.15189 0.15188 0.45566 0.30376 0.75943 0.45566 0.30378 0.45566 0.30378 0.45566 0.45566zm-8.8095 59.843v-51.034l-18.834 10.784-25.972 14.885v51.034zm-53.616 92.348v-51.034l-25.516 14.581-72.905 41.617v51.49l98.423-56.654zm-205.81-173.61v173.61l98.423 56.654v-51.49l-51.49-29.162c-0.15188-0.15188-0.30377-0.30376-0.45566-0.30376-0.15188-0.15189-0.30377-0.15189-0.45566-0.30378-0.15188-0.15188-0.30377-0.30377-0.30377-0.45565-0.15188-0.15189-0.30378-0.30377-0.30378-0.45566-0.15188-0.15188-0.15188-0.30377-0.30377-0.60754 0-0.15189-0.15189-0.30378-0.15189-0.45566s0-0.45566-0.15188-0.60754v-120.44l-25.972-14.885zm49.211-33.567-44.655 25.821 44.655 25.821 44.655-25.821zm23.238 160.7 25.972-14.885v-112.24l-18.834 10.784-25.972 14.885v112.24c0.15187 0.15188 18.834-10.784 18.834-10.784zm137.76-130.32-44.655 25.821 44.655 25.821 44.655-25.821c0.15189 0-44.655-25.821-44.655-25.821zm-4.4046 59.387-25.972-14.885-18.834-10.784v51.034l25.972 14.885 18.834 10.784zm-102.98 114.83 65.615-37.516 32.807-18.682-44.655-25.669-51.49 29.618-46.933 27.036c0.15188-0.15189 44.655 25.213 44.655 25.213z" stroke-width="1.5188"/>
</svg>
